<svg width="1500" height="500" viewBox="0 0 1500 500" fill="none" xmlns="http://www.w3.org/2000/svg">
<rect width="1500" height="500" fill="#F8F7F9"/>
<rect x="589" y="388" width="52" height="52" rx="26" fill="url(#paint0_linear_50_2)"/>
<mask id="path-2-inside-1_50_2" fill="white">
<path d="M631.775 415.061C631.829 415.041 631.889 415.035 631.947 415.045C632.005 415.055 632.059 415.08 632.103 415.118C632.148 415.157 632.182 415.206 632.201 415.262C632.22 415.317 632.223 415.377 632.211 415.434C631.369 419.378 629.2 422.914 626.065 425.451C622.929 427.988 619.019 429.371 614.986 429.371C610.953 429.371 607.042 427.988 603.907 425.451C600.772 422.914 598.602 419.378 597.76 415.434C597.748 415.377 597.752 415.317 597.771 415.262C597.79 415.206 597.823 415.157 597.868 415.118C597.913 415.08 597.967 415.055 598.025 415.045C598.083 415.035 598.142 415.041 598.197 415.061C603.016 416.886 608.786 417.946 614.986 417.946C621.186 417.946 626.955 416.886 631.775 415.061Z"/>
</mask>
<path d="M631.775 415.061C631.829 415.041 631.889 415.035 631.947 415.045C632.005 415.055 632.059 415.08 632.103 415.118C632.148 415.157 632.182 415.206 632.201 415.262C632.22 415.317 632.223 415.377 632.211 415.434C631.369 419.378 629.2 422.914 626.065 425.451C622.929 427.988 619.019 429.371 614.986 429.371C610.953 429.371 607.042 427.988 603.907 425.451C600.772 422.914 598.602 419.378 597.76 415.434C597.748 415.377 597.752 415.317 597.771 415.262C597.79 415.206 597.823 415.157 597.868 415.118C597.913 415.08 597.967 415.055 598.025 415.045C598.083 415.035 598.142 415.041 598.197 415.061C603.016 416.886 608.786 417.946 614.986 417.946C621.186 417.946 626.955 416.886 631.775 415.061Z" fill="white"/>
<path d="M631.775 415.061L635.315 424.414L635.323 424.411L635.331 424.408L631.775 415.061ZM632.211 415.434L641.991 417.522L641.995 417.504L641.998 417.486L632.211 415.434ZM597.76 415.434L587.973 417.486L587.977 417.504L587.981 417.522L597.76 415.434ZM598.197 415.061L594.641 424.408L594.649 424.411L594.657 424.414L598.197 415.061ZM635.331 424.408C633.708 425.025 631.949 425.194 630.238 424.898L633.655 405.192C631.829 404.875 629.951 405.056 628.218 405.715L635.331 424.408ZM630.238 424.898C628.528 424.601 626.929 423.85 625.608 422.722L638.599 407.515C637.189 406.311 635.481 405.509 633.655 405.192L630.238 424.898ZM625.608 422.722C624.288 421.595 623.296 420.132 622.736 418.489L641.666 412.034C641.067 410.28 640.008 408.719 638.599 407.515L625.608 422.722ZM622.736 418.489C622.175 416.845 622.068 415.082 622.424 413.383L641.998 417.486C642.379 415.672 642.264 413.789 641.666 412.034L622.736 418.489ZM622.431 413.347C622.068 415.052 621.13 416.58 619.775 417.677L632.355 433.225C637.27 429.248 640.671 423.705 641.991 417.522L622.431 413.347ZM619.775 417.677C618.419 418.773 616.729 419.371 614.986 419.371V439.371C621.308 439.371 627.439 437.202 632.355 433.225L619.775 417.677ZM614.986 419.371C613.243 419.371 611.552 418.773 610.197 417.677L597.617 433.225C602.532 437.202 608.663 439.371 614.986 439.371V419.371ZM610.197 417.677C608.842 416.58 607.904 415.052 607.54 413.347L587.981 417.522C589.3 423.705 592.702 429.248 597.617 433.225L610.197 417.677ZM607.548 413.383C607.904 415.082 607.796 416.846 607.236 418.489L588.306 412.034C587.708 413.789 587.593 415.672 587.973 417.486L607.548 413.383ZM607.236 418.489C606.676 420.132 605.683 421.594 604.363 422.722L591.373 407.515C589.964 408.719 588.904 410.28 588.306 412.034L607.236 418.489ZM604.363 422.722C603.043 423.85 601.444 424.601 599.733 424.898L596.316 405.192C594.49 405.509 592.783 406.311 591.373 407.515L604.363 422.722ZM599.733 424.898C598.023 425.194 596.264 425.025 594.641 424.408L601.753 405.715C600.021 405.056 598.143 404.875 596.316 405.192L599.733 424.898ZM594.657 424.414C600.704 426.703 607.684 427.946 614.986 427.946V407.946C609.887 407.946 605.329 407.069 601.737 405.709L594.657 424.414ZM614.986 427.946C622.287 427.946 629.267 426.703 635.315 424.414L628.234 405.709C624.643 407.069 620.084 407.946 614.986 407.946V427.946Z" fill="url(#paint1_linear_50_2)" mask="url(#path-2-inside-1_50_2)"/>
<path d="M682.709 427.167V431H663.886V427.167H682.709ZM664.838 395.453V431H660.126V395.453H664.838ZM680.219 410.736V414.569H663.886V410.736H680.219ZM682.465 395.453V399.311H663.886V395.453H682.465ZM692.377 408.734V431H687.86V404.584H692.255L692.377 408.734ZM700.629 404.438L700.604 408.637C700.23 408.555 699.872 408.507 699.53 408.49C699.205 408.458 698.83 408.441 698.407 408.441C697.366 408.441 696.446 408.604 695.648 408.93C694.851 409.255 694.175 409.711 693.622 410.297C693.069 410.883 692.629 411.583 692.304 412.396C691.994 413.194 691.791 414.073 691.693 415.033L690.424 415.766C690.424 414.171 690.578 412.673 690.888 411.273C691.213 409.874 691.71 408.637 692.377 407.562C693.044 406.472 693.891 405.626 694.916 405.023C695.958 404.405 697.195 404.096 698.627 404.096C698.952 404.096 699.327 404.136 699.75 404.218C700.173 404.283 700.466 404.356 700.629 404.438ZM709.711 404.584V431H705.17V404.584H709.711ZM704.828 397.577C704.828 396.845 705.048 396.226 705.487 395.722C705.943 395.217 706.61 394.965 707.489 394.965C708.352 394.965 709.011 395.217 709.467 395.722C709.939 396.226 710.175 396.845 710.175 397.577C710.175 398.277 709.939 398.879 709.467 399.384C709.011 399.872 708.352 400.116 707.489 400.116C706.61 400.116 705.943 399.872 705.487 399.384C705.048 398.879 704.828 398.277 704.828 397.577ZM727.533 427.777C728.607 427.777 729.6 427.558 730.512 427.118C731.423 426.679 732.172 426.076 732.758 425.312C733.344 424.53 733.677 423.643 733.759 422.65H738.056C737.974 424.213 737.445 425.67 736.469 427.021C735.508 428.355 734.247 429.438 732.685 430.268C731.122 431.081 729.405 431.488 727.533 431.488C725.548 431.488 723.814 431.138 722.333 430.438C720.868 429.739 719.647 428.778 718.671 427.558C717.711 426.337 716.986 424.937 716.498 423.358C716.026 421.763 715.79 420.079 715.79 418.305V417.279C715.79 415.505 716.026 413.829 716.498 412.25C716.986 410.655 717.711 409.247 718.671 408.026C719.647 406.806 720.868 405.845 722.333 405.146C723.814 404.446 725.548 404.096 727.533 404.096C729.6 404.096 731.407 404.519 732.953 405.365C734.499 406.195 735.712 407.335 736.591 408.783C737.486 410.215 737.974 411.843 738.056 413.666H733.759C733.677 412.576 733.368 411.591 732.831 410.712C732.31 409.833 731.594 409.133 730.683 408.612C729.787 408.075 728.738 407.807 727.533 407.807C726.15 407.807 724.986 408.083 724.042 408.637C723.114 409.174 722.374 409.906 721.82 410.834C721.283 411.745 720.893 412.763 720.648 413.886C720.421 414.993 720.307 416.124 720.307 417.279V418.305C720.307 419.46 720.421 420.6 720.648 421.723C720.876 422.846 721.259 423.863 721.796 424.774C722.349 425.686 723.09 426.418 724.018 426.972C724.962 427.509 726.133 427.777 727.533 427.777ZM747.675 393.5V431H743.134V393.5H747.675ZM763.812 404.584L752.289 416.913L745.844 423.603L745.478 418.793L750.092 413.275L758.295 404.584H763.812ZM759.687 431L750.263 418.402L752.606 414.374L765.009 431H759.687ZM781.562 395.453H793.329C795.998 395.453 798.253 395.86 800.092 396.674C801.947 397.488 803.355 398.692 804.315 400.287C805.292 401.866 805.78 403.811 805.78 406.122C805.78 407.75 805.447 409.239 804.779 410.59C804.128 411.924 803.184 413.064 801.947 414.008C800.727 414.936 799.262 415.627 797.553 416.083L796.234 416.596H785.175L785.126 412.763H793.476C795.168 412.763 796.576 412.47 797.699 411.884C798.822 411.282 799.669 410.476 800.238 409.467C800.808 408.458 801.093 407.343 801.093 406.122C801.093 404.755 800.824 403.559 800.287 402.533C799.75 401.508 798.904 400.718 797.748 400.165C796.609 399.595 795.136 399.311 793.329 399.311H786.273V431H781.562V395.453ZM802.338 431L793.695 414.887L798.603 414.862L807.367 430.707V431H802.338ZM822.65 431.488C820.811 431.488 819.143 431.179 817.646 430.561C816.164 429.926 814.887 429.039 813.812 427.899C812.755 426.76 811.941 425.409 811.371 423.847C810.801 422.284 810.517 420.575 810.517 418.72V417.694C810.517 415.546 810.834 413.633 811.469 411.957C812.104 410.264 812.966 408.832 814.057 407.66C815.147 406.488 816.384 405.601 817.768 404.999C819.151 404.397 820.583 404.096 822.064 404.096C823.952 404.096 825.58 404.421 826.947 405.072C828.331 405.723 829.462 406.635 830.341 407.807C831.22 408.962 831.871 410.329 832.294 411.908C832.717 413.471 832.929 415.18 832.929 417.035V419.062H813.202V415.375H828.412V415.033C828.347 413.861 828.103 412.722 827.68 411.615C827.273 410.508 826.622 409.597 825.727 408.881C824.831 408.165 823.611 407.807 822.064 407.807C821.039 407.807 820.095 408.026 819.232 408.466C818.37 408.889 817.629 409.524 817.011 410.37C816.392 411.216 815.912 412.25 815.57 413.471C815.229 414.691 815.058 416.099 815.058 417.694V418.72C815.058 419.973 815.229 421.153 815.57 422.26C815.928 423.35 816.441 424.311 817.108 425.141C817.792 425.971 818.614 426.622 819.574 427.094C820.551 427.566 821.658 427.802 822.895 427.802C824.49 427.802 825.84 427.476 826.947 426.825C828.054 426.174 829.022 425.303 829.853 424.213L832.587 426.386C832.017 427.248 831.293 428.07 830.414 428.852C829.535 429.633 828.453 430.268 827.167 430.756C825.897 431.244 824.392 431.488 822.65 431.488ZM845.282 428.266L852.631 404.584H857.465L846.869 435.077C846.625 435.728 846.299 436.428 845.893 437.177C845.502 437.942 844.997 438.666 844.379 439.35C843.76 440.033 843.012 440.587 842.133 441.01C841.27 441.449 840.237 441.669 839.032 441.669C838.674 441.669 838.218 441.62 837.665 441.522C837.112 441.425 836.721 441.343 836.493 441.278L836.469 437.616C836.599 437.632 836.802 437.649 837.079 437.665C837.372 437.698 837.576 437.714 837.689 437.714C838.715 437.714 839.586 437.576 840.302 437.299C841.018 437.038 841.62 436.591 842.108 435.956C842.613 435.338 843.044 434.483 843.402 433.393L845.282 428.266ZM839.887 404.584L846.747 425.092L847.919 429.853L844.672 431.513L834.955 404.584H839.887ZM872.162 431.488C870.323 431.488 868.655 431.179 867.157 430.561C865.676 429.926 864.398 429.039 863.324 427.899C862.266 426.76 861.452 425.409 860.883 423.847C860.313 422.284 860.028 420.575 860.028 418.72V417.694C860.028 415.546 860.346 413.633 860.98 411.957C861.615 410.264 862.478 408.832 863.568 407.66C864.659 406.488 865.896 405.601 867.279 404.999C868.663 404.397 870.095 404.096 871.576 404.096C873.464 404.096 875.092 404.421 876.459 405.072C877.842 405.723 878.974 406.635 879.853 407.807C880.731 408.962 881.382 410.329 881.806 411.908C882.229 413.471 882.44 415.18 882.44 417.035V419.062H862.714V415.375H877.924V415.033C877.859 413.861 877.615 412.722 877.191 411.615C876.785 410.508 876.133 409.597 875.238 408.881C874.343 408.165 873.122 407.807 871.576 407.807C870.551 407.807 869.607 408.026 868.744 408.466C867.882 408.889 867.141 409.524 866.522 410.37C865.904 411.216 865.424 412.25 865.082 413.471C864.74 414.691 864.569 416.099 864.569 417.694V418.72C864.569 419.973 864.74 421.153 865.082 422.26C865.44 423.35 865.953 424.311 866.62 425.141C867.304 425.971 868.126 426.622 869.086 427.094C870.062 427.566 871.169 427.802 872.406 427.802C874.001 427.802 875.352 427.476 876.459 426.825C877.566 426.174 878.534 425.303 879.364 424.213L882.099 426.386C881.529 427.248 880.805 428.07 879.926 428.852C879.047 429.633 877.965 430.268 876.679 430.756C875.409 431.244 873.904 431.488 872.162 431.488ZM903.095 423.993C903.095 423.342 902.948 422.74 902.655 422.187C902.379 421.617 901.801 421.104 900.922 420.648C900.059 420.176 898.757 419.77 897.016 419.428C895.551 419.118 894.224 418.752 893.036 418.329C891.864 417.906 890.863 417.393 890.033 416.791C889.219 416.189 888.593 415.481 888.153 414.667C887.714 413.853 887.494 412.901 887.494 411.811C887.494 410.769 887.722 409.784 888.178 408.856C888.65 407.929 889.309 407.107 890.155 406.391C891.018 405.674 892.051 405.113 893.256 404.706C894.46 404.299 895.803 404.096 897.284 404.096C899.4 404.096 901.207 404.47 902.704 405.219C904.201 405.967 905.349 406.968 906.146 408.222C906.944 409.459 907.343 410.834 907.343 412.348H902.826C902.826 411.615 902.606 410.907 902.167 410.224C901.744 409.524 901.117 408.946 900.287 408.49C899.473 408.035 898.472 407.807 897.284 407.807C896.031 407.807 895.014 408.002 894.232 408.393C893.467 408.767 892.906 409.247 892.548 409.833C892.206 410.419 892.035 411.037 892.035 411.688C892.035 412.177 892.117 412.616 892.279 413.007C892.458 413.381 892.768 413.731 893.207 414.057C893.646 414.366 894.265 414.659 895.062 414.936C895.86 415.212 896.877 415.489 898.114 415.766C900.279 416.254 902.061 416.84 903.461 417.523C904.861 418.207 905.902 419.045 906.586 420.038C907.27 421.031 907.611 422.235 907.611 423.651C907.611 424.807 907.367 425.865 906.879 426.825C906.407 427.785 905.715 428.616 904.804 429.315C903.909 429.999 902.834 430.536 901.581 430.927C900.344 431.301 898.952 431.488 897.406 431.488C895.079 431.488 893.109 431.073 891.498 430.243C889.887 429.413 888.666 428.339 887.836 427.021C887.006 425.702 886.591 424.311 886.591 422.846H891.132C891.197 424.083 891.555 425.067 892.206 425.8C892.857 426.516 893.655 427.029 894.599 427.338C895.543 427.631 896.479 427.777 897.406 427.777C898.643 427.777 899.677 427.615 900.507 427.289C901.353 426.964 901.996 426.516 902.436 425.946C902.875 425.377 903.095 424.726 903.095 423.993Z" fill="#1E272E"/>
<defs>
<linearGradient id="paint0_linear_50_2" x1="646.157" y1="414" x2="615" y2="440" gradientUnits="userSpaceOnUse">
<stop stop-color="#1E272E"/>
<stop offset="0.575301" stop-color="#1E272E"/>
</linearGradient>
<linearGradient id="paint1_linear_50_2" x1="17909.2" y1="9603.94" x2="17909.2" y2="7366.95" gradientUnits="userSpaceOnUse">
<stop stop-color="white"/>
<stop offset="1" stop-color="white"/>
</linearGradient>
</defs>
</svg>
